<svg id="Lag_1" data-name="Lag 1" xmlns="http://www.w3.org/2000/svg" viewBox="0 0 154.2 150"><defs><style>.cls-1{fill:none;}.cls-1,.cls-2,.cls-4{stroke:#000;}.cls-1,.cls-2,.cls-3,.cls-4{stroke-miterlimit:10;}.cls-1,.cls-4{stroke-width:2px;}.cls-3{fill:#f2f2f2;stroke:#f2f2f2;}</style></defs><title>u-bg_CruiseWorldInc._sortpaahvid</title><g id="Lag_8" data-name="Lag 8"><circle class="cls-1" cx="75" cy="75" r="74"/></g><g id="Lag_12" data-name="Lag 12"><line class="cls-1" x1="40.38" y1="88.91" x2="2.31" y2="88.91"/></g><path class="cls-2" d="M49,110.21a.53.53,0,0,0,.2-.55,140.07,140.07,0,0,0-13.46-33.5c-10.32-18.71-30-32.58-30-32.58S-1,38.74,7.72,39.71s44.84,7.1,75.48,19.35c29.09,11.63,57.3,39.83,60.1,42.67a.37.37,0,0,1,0,.49c-1.23,1.54-8,9.38-18.18,9.09-11.29-.32-25.81-7.42-25.81-7.42S85.21,96.47,73.4,100c-11.65,3.5-23.73,15.16-24.06,15.48h0a33,33,0,0,0-8.7,10.95s0,0,0,0L38.3,132.6s3.55-12.2,6.72-17.26C47.24,111.78,48.52,110.59,49,110.21Z" transform="translate(-2.27 -1.37)"/><polygon class="cls-2" points="67.17 10.58 67.17 7.81 70.4 7.81 70.4 10.58 66.74 10.58 67.17 10.58"/><g id="Lag_9" data-name="Lag 9"><polygon class="cls-2" points="48.35 44.4 48.35 22.42 64.48 22.42 64.48 40.76 57.89 46.87 48.35 44.4"/><polygon class="cls-2" points="76.75 39.81 76.75 14.77 81.9 14.77 94.29 14.77 94.29 34.79 88.28 30.79 76.75 39.81"/><polygon class="cls-2" points="58.99 10.6 73.19 10.6 73.19 38.62 69.23 36.47 67.38 38.21 67.38 20.15 58.99 19.95 58.99 10.6"/><path class="cls-2" d="M84.17,16.14S84,12.29,87.79,12s3.8,4.18,3.8,4.18Z" transform="translate(-2.27 -1.37)"/><rect class="cls-3" x="51.25" y="25.42" width="2.97" height="5.24"/><path class="cls-4" d="M31.2,86.77V75.41s5.38,8.24,5.38,11.36Z" transform="translate(-2.27 -1.37)"/><polygon class="cls-4" points="28.93 39.2 28.93 29.91 45.03 29.91 45.03 42.89 28.93 39.2"/><polygon class="cls-2" points="25.8 86.12 25.8 68.41 18.48 59.12 18.48 86.12 25.8 86.12"/><polygon class="cls-2" points="25.8 38.84 25.8 27.29 22.14 27.29 18.48 30.87 18.48 37.45 25.8 38.84"/><rect class="cls-2" x="6.22" y="56.16" width="9.53" height="29.96"/><rect class="cls-3" x="58.99" y="25.42" width="2.97" height="5.24"/><path class="cls-2" d="M33.89,30.47V26h2a38.84,38.84,0,0,1,0,4.49C35.73,31.28,33.89,30.47,33.89,30.47Z" transform="translate(-2.27 -1.37)"/><rect class="cls-3" x="88.51" y="18.23" width="2.97" height="5.24"/><rect class="cls-3" x="79.77" y="18.23" width="2.97" height="5.24"/><rect class="cls-3" x="39.42" y="32.03" width="2.97" height="5.24"/><rect class="cls-3" x="20.65" y="68.52" width="2.97" height="5.24"/><rect class="cls-3" x="31.17" y="32.03" width="2.97" height="5.24"/><rect class="cls-3" x="20.65" y="78.04" width="2.97" height="5.24"/><rect class="cls-3" x="9.5" y="62.6" width="2.97" height="5.24"/><path class="cls-2" d="M99.05,38.64V21.11h11.4V39.58s-3.21.08-3.37,2.55-.16,3.49-.16,3.49Z" transform="translate(-2.27 -1.37)"/><rect class="cls-3" x="98.51" y="23.87" width="2.97" height="5.24"/><rect class="cls-3" x="103.87" y="23.87" width="2.97" height="5.24"/><rect class="cls-3" x="9.5" y="75.23" width="2.97" height="5.24"/></g><path class="cls-2" d="M155.11,86.1s-1,18.23-18.9,26.57-41.48-5.11-41.48-5.11-12.78-7.72-28.52.52-20.16,16-20.16,16-6.19,10-7.33,15.87c0,0,9.29-16.9,27.8-24.6s39.09,3.74,39.09,3.74,21.72,9.36,38.35-2S155.11,86.1,155.11,86.1Z" transform="translate(-2.27 -1.37)"/><g id="Lag_4" data-name="Lag 4"><path class="cls-2" d="M52.12,130.28s10.12-9.93,17.39-12a38.63,38.63,0,0,1,15-.72s12.82,3.65,22.64,7.56,29.17-.14,29.17-.14,12.57-6,15.42-11.16S148.42,128.4,137,131.9c-10.92,3.35-27.3,1.8-34.76-2s-12.83-9.24-22-9.24-14.86,3-14.86,3Z" transform="translate(-2.27 -1.37)"/></g><g id="Lag_3" data-name="Lag 3"><path class="cls-2" d="M62.74,50l9.06-8.85s49.57,28.57,66.41,45.59C138.21,86.77,88.42,48.39,62.74,50Z" transform="translate(-2.27 -1.37)"/><path class="cls-2" d="M79,44.35l11.51-8.79S136.74,71.89,143.41,81C143.4,81,99.55,45.14,79,44.35Z" transform="translate(-2.27 -1.37)"/></g><g id="Lag_5" data-name="Lag 5"><path class="cls-2" d="M124,59.59l-6.16-4.81-.23-4.12s.27-1.56,3.06,0,3.06,2.8,3.06,2.8Z" transform="translate(-2.27 -1.37)"/></g><g id="Lag_6" data-name="Lag 6"><path class="cls-2" d="M115.57,52.77l-6.45-5.14V42.22s.26-.54,3.23,1.08,3.23,3,3.23,3v6.49Z" transform="translate(-2.27 -1.37)"/></g></svg>