<svg id="Lag_1" data-name="Lag 1" xmlns="http://www.w3.org/2000/svg" viewBox="0 0 154.2 150"><defs><style>.cls-1{fill:none;stroke:#04b2d9;}.cls-1,.cls-2,.cls-3,.cls-4,.cls-5,.cls-6{stroke-miterlimit:10;}.cls-1,.cls-5{stroke-width:2px;}.cls-2{fill:#0477bf;stroke:#0477bf;}.cls-3,.cls-5{fill:#333;stroke:#333;}.cls-4{fill:#f2f2f2;stroke:#f2f2f2;}.cls-6{fill:#049dd9;stroke:#049dd9;}</style></defs><title>u-bg_CruiseWorldInc._farver</title><g id="Lag_8" data-name="Lag 8"><circle class="cls-1" cx="75" cy="75" r="74"/></g><g id="Lag_12" data-name="Lag 12"><line class="cls-1" x1="40.38" y1="88.91" x2="2.31" y2="88.91"/></g><path class="cls-2" d="M252.61,169.59a.53.53,0,0,0,.2-.55,140.07,140.07,0,0,0-13.46-33.5c-10.32-18.71-30-32.58-30-32.58s-6.77-4.84,1.94-3.87,44.84,7.1,75.48,19.35c29.09,11.63,57.3,39.83,60.1,42.67a.37.37,0,0,1,0,.49c-1.23,1.54-8,9.38-18.18,9.09-11.29-.32-25.81-7.42-25.81-7.42s-14.12-7.42-25.93-3.87c-11.65,3.5-23.73,15.16-24.06,15.48h0a33,33,0,0,0-8.7,11v0L241.87,192s3.55-12.2,6.72-17.26C250.81,171.16,252.09,170,252.61,169.59Z" transform="translate(-205.84 -60.75)"/><polygon class="cls-3" points="67.17 10.58 67.17 7.81 70.4 7.81 70.4 10.58 66.74 10.58 67.17 10.58"/><g id="Lag_9" data-name="Lag 9"><polygon class="cls-3" points="48.35 44.4 48.35 22.42 64.48 22.42 64.48 40.76 57.89 46.87 48.35 44.4"/><polygon class="cls-3" points="76.75 39.81 76.75 14.77 81.9 14.77 94.29 14.77 94.29 34.79 88.28 30.79 76.75 39.81"/><polygon class="cls-3" points="58.99 10.6 73.19 10.6 73.19 38.62 69.23 36.47 67.38 38.21 67.38 20.15 58.99 19.95 58.99 10.6"/><path class="cls-3" d="M287.74,75.52s-.17-3.85,3.62-4.18,3.8,4.18,3.8,4.18Z" transform="translate(-205.84 -60.75)"/><rect class="cls-4" x="51.25" y="25.42" width="2.97" height="5.24"/><path class="cls-5" d="M234.77,146.15V134.79s5.38,8.24,5.38,11.36Z" transform="translate(-205.84 -60.75)"/><polygon class="cls-5" points="28.93 39.2 28.93 29.91 45.03 29.91 45.03 42.89 28.93 39.2"/><polygon class="cls-3" points="25.8 86.12 25.8 68.41 18.48 59.12 18.48 86.12 25.8 86.12"/><polygon class="cls-3" points="25.8 38.84 25.8 27.29 22.14 27.29 18.48 30.87 18.48 37.45 25.8 38.84"/><rect class="cls-3" x="6.22" y="56.16" width="9.53" height="29.96"/><rect class="cls-4" x="58.99" y="25.42" width="2.97" height="5.24"/><path class="cls-3" d="M237.46,89.85V85.36h2a38.84,38.84,0,0,1,0,4.49C239.3,90.66,237.46,89.85,237.46,89.85Z" transform="translate(-205.84 -60.75)"/><rect class="cls-4" x="88.51" y="18.23" width="2.97" height="5.24"/><rect class="cls-4" x="79.77" y="18.23" width="2.97" height="5.24"/><rect class="cls-4" x="39.42" y="32.03" width="2.97" height="5.24"/><rect class="cls-4" x="20.65" y="68.52" width="2.97" height="5.24"/><rect class="cls-4" x="31.17" y="32.03" width="2.97" height="5.24"/><rect class="cls-4" x="20.65" y="78.04" width="2.97" height="5.24"/><rect class="cls-4" x="9.5" y="62.6" width="2.97" height="5.24"/><path class="cls-3" d="M302.62,98V80.49H314V99s-3.21.08-3.37,2.55-.16,3.49-.16,3.49Z" transform="translate(-205.84 -60.75)"/><rect class="cls-4" x="98.51" y="23.87" width="2.97" height="5.24"/><rect class="cls-4" x="103.87" y="23.87" width="2.97" height="5.24"/><rect class="cls-4" x="9.5" y="75.23" width="2.97" height="5.24"/></g><path class="cls-2" d="M358.68,145.48s-1,18.23-18.9,26.57-41.48-5.11-41.48-5.11-12.78-7.72-28.52.52-20.16,16-20.16,16-6.19,10-7.33,15.87c0,0,9.29-16.9,27.8-24.6s39.09,3.74,39.09,3.74,21.72,9.36,38.35-2S358.68,145.48,358.68,145.48Z" transform="translate(-205.84 -60.75)"/><g id="Lag_4" data-name="Lag 4"><path class="cls-2" d="M255.69,189.66s10.12-9.93,17.39-12a38.63,38.63,0,0,1,15-.72s12.82,3.65,22.64,7.56,29.17-.14,29.17-.14,12.57-6,15.42-11.16-3.31,14.56-14.71,18.06c-10.92,3.35-27.3,1.8-34.76-2s-12.83-9.24-22-9.24S269,183,269,183Z" transform="translate(-205.84 -60.75)"/></g><g id="Lag_3" data-name="Lag 3"><path class="cls-2" d="M266.31,109.41l9.06-8.85s49.57,28.57,66.41,45.59C341.78,146.15,292,107.77,266.31,109.41Z" transform="translate(-205.84 -60.75)"/><path class="cls-2" d="M282.59,103.73l11.51-8.79s46.21,36.33,52.88,45.44C347,140.39,303.12,104.52,282.59,103.73Z" transform="translate(-205.84 -60.75)"/></g><g id="Lag_5" data-name="Lag 5"><path class="cls-6" d="M327.54,119l-6.16-4.81-.23-4.12s.27-1.56,3.06,0,3.06,2.8,3.06,2.8Z" transform="translate(-205.84 -60.75)"/></g><g id="Lag_6" data-name="Lag 6"><path class="cls-6" d="M319.14,112.15,312.69,107V101.6s.26-.54,3.23,1.08,3.23,3,3.23,3v6.49Z" transform="translate(-205.84 -60.75)"/></g></svg>