<svg xmlns="http://www.w3.org/2000/svg" viewBox="0 0 154.2 150"><defs><style>.cls-1{fill:none;}.cls-1,.cls-2,.cls-4{stroke:#19374f;}.cls-1,.cls-2,.cls-3,.cls-4{stroke-miterlimit:10;}.cls-1,.cls-2{stroke-width:2px;}.cls-2,.cls-4{fill:#19374f;}.cls-3{fill:#234c6c;stroke:#234c6c;}</style></defs><title>CruiseWorldInc._blaafarver</title><g id="Lag_8" data-name="Lag 8"><circle class="cls-1" cx="75" cy="75" r="74"/></g><g id="Lag_12" data-name="Lag 12"><line class="cls-2" x1="40.38" y1="88.91" x2="2.31" y2="88.91"/></g><g id="Lag_1" data-name="Lag 1"><path class="cls-3" d="M51.1,112.76a.51.51,0,0,0,.2-.55,139.12,139.12,0,0,0-13.46-33.5C27.52,60,7.84,46.13,7.84,46.13s-6.77-4.84,1.94-3.87,44.83,7.1,75.48,19.35c29.09,11.64,57.3,39.84,60.09,42.68a.36.36,0,0,1,0,.49c-1.24,1.54-8,9.38-18.19,9.09-11.29-.32-25.8-7.42-25.8-7.42S87.27,99,75.46,102.58c-11.65,3.5-23.74,15.16-24.07,15.48h0a33,33,0,0,0-8.7,11v0l-2.31,6.11s3.55-12.2,6.71-17.26C49.3,114.33,50.58,113.14,51.1,112.76Z" transform="translate(-4.33 -3.92)"/><polygon class="cls-4" points="67.17 10.58 67.17 7.81 70.4 7.81 70.4 10.58 66.74 10.58 67.17 10.58"/></g><g id="Lag_9" data-name="Lag 9"><polygon class="cls-4" points="58.99 10.6 73.19 10.6 73.19 38.62 69.23 36.47 67.38 38.21 67.38 20.15 58.99 19.95 58.99 10.6"/><path class="cls-4" d="M86.23,18.69s-.18-3.85,3.62-4.17,3.8,4.17,3.8,4.17Z" transform="translate(-4.33 -3.92)"/><path class="cls-2" d="M33.26,89.32V78s5.38,8.24,5.38,11.36Z" transform="translate(-4.33 -3.92)"/><polygon class="cls-4" points="25.8 86.12 25.8 68.41 18.48 59.12 18.48 86.12 25.8 86.12"/><polygon class="cls-4" points="25.8 38.83 25.8 27.29 22.14 27.29 18.48 30.87 18.48 37.45 25.8 38.83"/><path class="cls-4" d="M36,33V28.53h2A38.84,38.84,0,0,1,38,33C37.79,33.83,36,33,36,33Z" transform="translate(-4.33 -3.92)"/><path class="cls-4" d="M101.11,23.66V41.19l7.87,7s0-1,.16-3.49,3.37-2.55,3.37-2.55V23.66Zm9.4,12.49h-7.4V25.76h7.4Z" transform="translate(-4.33 -3.92)"/><path class="cls-2" d="M33.26,33.83v9.29l16.1,3.69v-13Zm6.79,9.24H33.93V34.56h6.12Zm8.72,0H42.64V34.56h6.13Z" transform="translate(-4.33 -3.92)"/><path class="cls-4" d="M52.68,26.34v22l9.54,2.46,6.59-6.11V26.34Zm6.77,11.74H53.32v-8.5h6.13Zm8.83,0H62.16v-8.5h6.12Z" transform="translate(-4.33 -3.92)"/><path class="cls-4" d="M86.23,18.69H81.08v25l11.53-9,6,4v-20ZM88,27.91H81.89v-8.5H88Zm9.75,0H91.65v-8.5h6.12Z" transform="translate(-4.33 -3.92)"/><path class="cls-4" d="M10.55,60.09V90h9.54V60.09Zm8.47,15h-7.4V64.68H19Z" transform="translate(-4.33 -3.92)"/></g><g id="Lag_2" data-name="Lag 2"><path class="cls-3" d="M157.17,88.65s-1,18.23-18.9,26.57-41.48-5.11-41.48-5.11-12.79-7.72-28.52.52-20.17,16-20.17,16-6.18,10-7.32,15.87c0,0,9.29-16.9,27.79-24.59s39.1,3.74,39.1,3.74S129.39,131,146,119.65,157.17,88.65,157.17,88.65Z" transform="translate(-4.33 -3.92)"/></g><g id="Lag_4" data-name="Lag 4"><path class="cls-3" d="M54.18,132.83s10.12-9.93,17.39-12a38.63,38.63,0,0,1,15-.72s12.82,3.66,22.64,7.57,29.17-.14,29.17-.14,12.57-6,15.42-11.16-3.32,14.56-14.71,18.06c-10.91,3.35-27.3,1.79-34.76-2s-12.83-9.24-22-9.24-14.86,3-14.86,3Z" transform="translate(-4.33 -3.92)"/></g><g id="Lag_3" data-name="Lag 3"><path class="cls-3" d="M64.8,52.58l9.06-8.85s49.57,28.56,66.41,45.59C140.27,89.32,90.48,50.94,64.8,52.58Z" transform="translate(-4.33 -3.92)"/><path class="cls-3" d="M81.08,46.9l11.51-8.78s46.21,36.33,52.87,45.44C145.46,83.56,101.61,47.69,81.08,46.9Z" transform="translate(-4.33 -3.92)"/></g><g id="Lag_5" data-name="Lag 5"><path class="cls-3" d="M126,62.14l-6.15-4.81-.23-4.12s.27-1.56,3.06,0,3.06,2.8,3.06,2.8Z" transform="translate(-4.33 -3.92)"/></g><g id="Lag_6" data-name="Lag 6"><path class="cls-3" d="M117.63,55.32l-6.45-5.14V44.77s.25-.55,3.22,1.08,3.23,3,3.23,3Z" transform="translate(-4.33 -3.92)"/></g></svg>