<svg xmlns="http://www.w3.org/2000/svg" width="153.017" height="148.662" viewBox="0 0 153.017 148.662">
  <g id="CruiseWorldInc._farver" transform="translate(0.296 0.5)">
    <g id="Lag_8" data-name="Lag 8" transform="translate(0.704 0.5)">
      <circle id="Ellipse_4" data-name="Ellipse 4" cx="73.331" cy="73.331" r="73.331" fill="none" stroke="#e8e9ea" stroke-miterlimit="10" stroke-width="2"/>
    </g>
    <g id="Lag_12" data-name="Lag 12" transform="translate(2.002 87.615)">
      <line id="Line_4" data-name="Line 4" x1="37.726" fill="#19374f" stroke="#e8e9ea" stroke-miterlimit="10" stroke-width="2"/>
    </g>
    <g id="Lag_1" data-name="Lag 1" transform="translate(0 7.248)">
      <path id="Path_59" data-name="Path 59" d="M50.442,112.472a.525.525,0,0,0,.2-.545A140.716,140.716,0,0,0,37.163,78.234C26.8,59.406,7.137,45.443,7.137,45.443S.349,40.578,9.069,41.549s44.88,7.145,75.56,19.472c29.114,11.7,57.357,40.074,60.151,42.928a.377.377,0,0,1,0,.505c-1.239,1.546-8.017,9.434-18.2,9.147-11.307-.327-25.834-7.472-25.834-7.472s-14.131-7.462-25.953-3.894C63.126,105.763,51.007,117.5,50.7,117.813h0a33.187,33.187,0,0,0-8.711,11.01h0l-2.309,6.193s3.558-12.268,6.729-17.371C48.6,114.057,49.917,112.858,50.442,112.472Z" transform="translate(-4.62 -11.998)" fill="#e8e9ea"/>
      <path id="Path_60" data-name="Path 60" d="M66.876,10.055V7.31h3.2v2.745h-3.2Z" transform="translate(-0.601 -7.31)" fill="#e8e9ea"/>
    </g>
    <g id="Lag_9" data-name="Lag 9" transform="translate(5.173 8.118)">
      <path id="Path_61" data-name="Path 61" d="M57.99,9.39H73.469V38.554l-4.321-2.23-2.012,1.813V19.329l-9.147-.208Z" transform="translate(-5.697 -8.198)" fill="#e8e9ea"/>
      <path id="Path_62" data-name="Path 62" d="M32.55,90.519V75.06s7.323,11.218,7.323,15.459Z" transform="translate(-10.045 -13.172)" fill="#e8e9ea"/>
      <path id="Path_63" data-name="Path 63" d="M26.141,86.073V67.6L17.48,57.91V86.073Z" transform="translate(-5.331 -8.637)" fill="#e8e9ea"/>
      <path id="Path_64" data-name="Path 64" d="M26.141,38.923V26.08H21.81l-4.33,3.984v7.313Z" transform="translate(-5.331 -8.349)" fill="#e8e9ea"/>
      <path id="Path_65" data-name="Path 65" d="M52,25.64V48.046l10.286,2.517,7.105-6.233V25.64Zm7.393,12.169H53.447V28.5h5.946Zm8.4,0H61.91V28.5h5.9Z" transform="translate(-10.221 -12.725)" fill="#e8e9ea"/>
      <path id="Path_66" data-name="Path 66" d="M93.659,17.951c0-1.06-.476-5.708-4.291-5.321s-4.083,4.33-4.1,5.321h-4.9v26.2l11.842-9.444,6.174,4.182V17.951ZM88.248,30.338H82.3V21.033h5.946Zm8.086-.168H90.389V20.865h5.946Z" transform="translate(-10.478 -12.607)" fill="#e8e9ea"/>
      <path id="Path_67" data-name="Path 67" d="M37.852,33.078a.238.238,0,0,0,.1-.119,38.49,38.49,0,0,0,0-4.449H35.969v4.449a2.08,2.08,0,0,0,.248.1H32.55V43.265l17.362,4.063V33.078ZM40,41.3H34.056V34.941H40Zm8.562,0H42.618V34.941h5.946Z" transform="translate(-10.045 -12.751)" fill="#e8e9ea"/>
      <path id="Path_68" data-name="Path 68" d="M100.4,23V41.333l8.77,7.313s0-1.07.178-3.657,3.756-2.676,3.756-2.676V23Zm9.721,13.873h-6.748V26.736h6.748Z" transform="translate(-10.659 -12.701)" fill="#e8e9ea"/>
      <path id="Path_69" data-name="Path 69" d="M9.84,59.38V90.466h10.9V59.38Zm8.8,15.251H11.891V64.5H18.64Z" transform="translate(-9.84 -13.03)" fill="#e8e9ea"/>
    </g>
    <g id="Lag_2" data-name="Lag 2" transform="translate(35.12 82.769)">
      <path id="Path_70" data-name="Path 70" d="M156.8,87.94s-.991,18.541-18.957,27.023-41.62-5.2-41.62-5.2-12.813-7.848-28.6.535S47.4,126.518,47.4,126.518s-6.2,10.137-7.343,16.143c0,0,9.315-17.183,27.876-25.012s39.212,3.805,39.212,3.805,21.8,9.513,38.459-1.982S156.8,87.94,156.8,87.94Z" transform="translate(-40.06 -87.94)" fill="#e8e9ea"/>
    </g>
    <g id="Lag_4" data-name="Lag 4" transform="translate(48.408 109.43)">
      <path id="Path_71" data-name="Path 71" d="M53.47,133.133s10.167-10.5,17.48-12.684a36.8,36.8,0,0,1,15.063-.753S98.9,123.56,108.805,127.7s29.312-.149,29.312-.149,12.635-6.382,15.5-11.812-3.369,15.409-14.825,19.076c-10.97,3.548-27.44,1.9-34.931-2.081s-12.882-9.791-22.108-9.791S66.818,126.1,66.818,126.1Z" transform="translate(-53.47 -114.844)" fill="#e8e9ea"/>
    </g>
    <g id="Lag_3" data-name="Lag 3" transform="translate(58.932 32.696)">
      <path id="Path_72" data-name="Path 72" d="M64.09,52.067,73.237,43S123.28,72.2,140.3,89.575C140.3,89.575,90.013,50.383,64.09,52.067Z" transform="translate(-64.09 -37.461)" fill="#e8e9ea"/>
      <path id="Path_73" data-name="Path 73" d="M80.37,46.388,92.024,37.41s46.8,37.121,53.512,46.436C145.575,83.846,101.16,47.191,80.37,46.388Z" transform="translate(-64.237 -37.41)" fill="#e8e9ea"/>
    </g>
    <g id="Lag_5" data-name="Lag 5" transform="translate(114.634 47.971)">
      <path id="Path_74" data-name="Path 74" d="M128.029,63.77l-7.452-5.47-.277-4.687s.327-1.774,3.706,0,3.716,3.191,3.716,3.191Z" transform="translate(-120.3 -52.824)" fill="#e8e9ea"/>
    </g>
    <g id="Lag_6" data-name="Lag 6" transform="translate(105.735 39.983)">
      <path id="Path_75" data-name="Path 75" d="M119.119,56.711l-7.8-5.767V44.859s.307-.6,3.894,1.219,3.9,3.34,3.9,3.34Z" transform="translate(-111.32 -44.763)" fill="#e8e9ea"/>
    </g>
  </g>
</svg>
